<?xml version="1.0" standalone="no"?>
<!DOCTYPE svg PUBLIC "-//W3C//DTD SVG 20010904//EN"
 "http://www.w3.org/TR/2001/REC-SVG-20010904/DTD/svg10.dtd">
<svg version="1.0" xmlns="http://www.w3.org/2000/svg"
 width="626.000000pt" height="182.000000pt" viewBox="0 0 626.000000 182.000000"
 preserveAspectRatio="xMidYMid meet">

<g transform="translate(0.000000,182.000000) scale(0.100000,-0.100000)"
fill="#000000" stroke="none">
<path d="M5405 1768 c-3 -7 -4 -256 -3 -553 l3 -540 120 0 120 0 5 265 c5 257
6 266 28 298 40 56 114 80 186 61 47 -12 71 -31 95 -74 13 -25 17 -74 21 -289
l5 -260 120 0 120 -1 3 230 c3 247 -7 362 -37 430 -26 59 -80 116 -138 145
-41 21 -62 25 -143 25 -83 0 -101 -3 -145 -27 -27 -14 -61 -38 -74 -52 -14
-14 -28 -26 -33 -26 -4 0 -9 84 -10 188 l-3 187 -118 3 c-88 2 -119 -1 -122
-10z"/>
<path d="M40 1195 l0 -525 125 0 125 0 2 218 3 217 200 0 200 0 3 -217 2 -218
125 0 125 0 0 525 0 525 -125 0 -125 0 0 -205 0 -205 -205 0 -205 0 0 205 0
205 -125 0 -125 0 0 -525z"/>
<path d="M1575 1708 c-3 -7 -4 -242 -3 -523 l3 -510 120 0 120 0 3 196 2 197
31 4 c34 5 43 -4 104 -117 89 -165 149 -270 158 -277 15 -9 255 -10 261 0 2 4
-45 93 -106 198 -61 104 -112 194 -115 201 -3 7 17 21 46 34 72 30 146 113
167 186 48 165 -34 331 -195 395 -52 20 -76 22 -323 26 -218 3 -269 1 -273
-10z m496 -214 c54 -28 74 -113 43 -180 -26 -54 -62 -68 -184 -68 l-105 -1 -3
133 -3 132 111 0 c81 0 119 -4 141 -16z"/>
<path d="M2775 1494 c-162 -52 -260 -186 -272 -374 -12 -187 68 -342 211 -409
219 -103 469 -32 566 163 l31 61 -131 3 -131 3 -25 -30 c-45 -54 -136 -64
-206 -23 -30 18 -68 84 -68 120 0 22 0 22 288 24 l287 3 3 59 c8 163 -75 309
-216 378 -62 31 -75 33 -177 35 -78 2 -124 -2 -160 -13z m223 -195 c34 -17 49
-32 64 -66 11 -24 18 -49 16 -54 -3 -10 -316 -14 -326 -4 -2 2 1 19 7 38 31
94 141 133 239 86z"/>
<path d="M3690 1501 c-164 -51 -262 -204 -263 -411 0 -164 62 -298 172 -369
136 -88 304 -75 407 30 l39 40 5 -58 5 -58 120 0 120 0 3 413 2 412 -125 0
-125 0 0 -56 0 -56 -50 45 c-28 25 -71 52 -97 61 -48 17 -168 20 -213 7z m278
-233 c57 -38 77 -86 77 -184 0 -71 -3 -85 -28 -122 -60 -92 -197 -111 -276
-39 -80 74 -83 258 -4 329 59 54 162 61 231 16z"/>
<path d="M4705 1489 c-154 -54 -244 -179 -261 -364 -17 -181 76 -356 222 -421
128 -57 267 -55 391 6 90 44 166 138 188 233 l7 27 -130 0 -130 0 -21 -35
c-27 -46 -79 -69 -137 -60 -91 13 -136 83 -136 210 0 144 50 215 152 215 62 0
104 -20 125 -60 l16 -30 129 0 c103 0 130 3 130 14 0 32 -74 158 -113 192 -77
67 -137 88 -262 91 -91 3 -120 0 -170 -18z"/>
<path d="M1140 960 l0 -290 125 0 125 0 0 290 0 290 -125 0 -125 0 0 -290z"/>
<path d="M2960 367 c-14 -7 -29 -26 -35 -45 -5 -17 -13 -32 -17 -32 -4 0 -8
-7 -8 -15 0 -8 5 -15 10 -15 6 0 10 -38 10 -95 0 -88 1 -95 20 -95 19 0 20 7
20 91 0 82 2 91 20 96 11 3 20 12 20 19 0 8 -9 14 -20 14 -11 0 -20 4 -20 9 0
21 13 41 26 41 8 0 14 9 14 20 0 23 -6 24 -40 7z"/>
<path d="M3050 215 c0 -138 1 -145 20 -145 19 0 20 7 20 145 0 138 -1 145 -20
145 -19 0 -20 -7 -20 -145z"/>
<path d="M693 335 c-98 -42 -96 -210 2 -251 41 -17 88 -18 118 -3 28 15 67 50
67 61 0 16 -47 8 -65 -12 -13 -14 -31 -20 -61 -20 -35 0 -47 5 -68 31 -58 68
-15 169 72 169 26 0 45 -6 57 -20 18 -20 65 -28 65 -12 0 14 -43 50 -73 61
-38 15 -75 13 -114 -4z"/>
<path d="M2550 210 c0 -133 1 -140 20 -140 19 0 20 7 20 140 0 133 -1 140 -20
140 -19 0 -20 -7 -20 -140z"/>
<path d="M4671 332 c-99 -50 -105 -177 -12 -239 41 -28 94 -30 140 -5 37 20
71 72 71 109 0 22 -4 23 -75 23 -60 0 -75 -3 -75 -15 0 -11 12 -15 50 -15 58
0 65 -16 25 -55 -18 -19 -35 -25 -65 -25 -58 0 -90 36 -90 99 0 25 6 53 13 62
32 42 99 51 140 19 14 -11 35 -20 47 -20 21 0 21 2 8 23 -19 29 -75 57 -113
57 -16 0 -45 -8 -64 -18z"/>
<path d="M2210 315 c0 -16 -6 -25 -15 -25 -8 0 -15 -6 -15 -14 0 -8 7 -16 15
-20 11 -4 15 -23 15 -80 0 -66 3 -77 22 -90 32 -23 68 -21 68 3 0 13 -8 21
-22 23 -21 3 -23 8 -23 73 0 65 2 70 23 73 31 5 29 32 -3 32 -20 0 -25 5 -25
25 0 18 -5 25 -20 25 -15 0 -20 -7 -20 -25z"/>
<path d="M959 261 c-25 -25 -29 -37 -29 -81 0 -44 4 -56 29 -81 57 -57 155
-32 181 46 25 75 -27 145 -107 145 -36 0 -50 -6 -74 -29z m115 -22 c37 -29 37
-89 -1 -118 -46 -37 -103 -3 -103 60 0 29 6 42 26 58 15 12 32 21 39 21 7 0
24 -9 39 -21z"/>
<path d="M1200 180 c0 -103 1 -110 20 -110 18 0 20 7 20 80 0 75 2 81 26 97
24 15 29 15 53 2 24 -14 26 -20 29 -97 3 -74 5 -82 22 -82 18 0 20 7 20 89 0
85 -1 91 -26 110 -29 23 -74 27 -105 11 -13 -7 -19 -7 -19 0 0 5 -9 10 -20 10
-19 0 -20 -7 -20 -110z"/>
<path d="M1460 180 c0 -103 1 -110 20 -110 18 0 20 7 20 80 0 73 2 81 24 96
22 13 29 14 53 2 27 -13 28 -16 31 -96 3 -74 5 -82 22 -82 18 0 20 7 20 85 0
78 -2 88 -25 110 -26 27 -72 33 -106 15 -13 -7 -19 -7 -19 0 0 5 -9 10 -20 10
-19 0 -20 -7 -20 -110z"/>
<path d="M1747 279 c-24 -14 -47 -62 -47 -99 0 -67 45 -110 114 -110 32 0 86
32 86 51 0 14 -33 10 -54 -6 -11 -8 -28 -15 -38 -15 -23 0 -71 46 -63 60 3 6
42 10 86 10 l79 0 0 31 c0 48 -47 89 -102 89 -24 0 -51 -5 -61 -11z m103 -39
c33 -33 24 -40 -45 -40 -62 0 -65 1 -55 20 22 42 69 51 100 20z"/>
<path d="M1979 261 c-25 -25 -29 -37 -29 -81 0 -44 4 -56 29 -81 39 -39 105
-41 145 -4 14 13 26 29 26 35 0 17 -30 12 -57 -10 -33 -26 -49 -25 -78 5 -35
34 -34 86 1 114 33 26 45 26 77 1 27 -22 57 -27 57 -10 0 6 -11 22 -25 35 -37
37 -106 35 -146 -4z"/>
<path d="M2660 180 c0 -103 1 -110 20 -110 18 0 20 7 20 80 0 75 2 81 26 97
24 15 29 15 53 2 24 -14 26 -20 29 -97 3 -74 5 -82 22 -82 18 0 20 7 20 89 0
85 -1 91 -26 110 -29 23 -74 27 -105 11 -13 -7 -19 -7 -19 0 0 5 -9 10 -20 10
-19 0 -20 -7 -20 -110z"/>
<path d="M3150 215 c0 -84 12 -118 47 -134 32 -15 76 -14 92 1 11 10 14 10 18
1 3 -7 13 -13 24 -13 18 0 19 8 19 110 0 103 -1 110 -20 110 -18 0 -20 -7 -20
-73 0 -78 -10 -100 -47 -112 -17 -4 -29 1 -48 19 -22 22 -25 34 -25 96 0 63
-2 70 -20 70 -18 0 -20 -7 -20 -75z"/>
<path d="M3447 279 c-43 -25 -60 -106 -33 -158 28 -54 114 -69 163 -27 34 30
24 45 -20 27 -59 -24 -65 -24 -92 3 -14 14 -23 31 -20 36 3 6 42 10 86 10 l79
0 0 31 c0 48 -47 89 -102 89 -24 0 -51 -5 -61 -11z m103 -39 c33 -33 24 -40
-45 -40 -62 0 -65 1 -55 20 22 42 69 51 100 20z"/>
<path d="M3660 180 c0 -103 1 -110 20 -110 18 0 20 7 20 70 0 62 3 74 25 96
19 18 31 23 48 19 37 -12 47 -34 47 -112 0 -67 2 -73 21 -73 20 0 21 4 17 91
-3 81 -6 93 -27 110 -27 22 -90 25 -110 7 -11 -10 -14 -10 -18 0 -3 6 -13 12
-24 12 -18 0 -19 -8 -19 -110z"/>
<path d="M3939 261 c-25 -25 -29 -37 -29 -81 0 -44 4 -56 29 -81 32 -32 84
-39 124 -17 23 12 46 37 47 51 0 15 -41 6 -60 -13 -43 -43 -100 -9 -100 60 0
45 27 80 60 80 11 0 29 -9 40 -20 21 -21 60 -27 60 -10 0 6 -12 22 -26 35 -40
37 -106 35 -145 -4z"/>
<path d="M4179 261 c-25 -25 -29 -37 -29 -81 0 -44 4 -56 29 -81 41 -40 105
-41 147 -2 28 27 28 28 7 31 -12 2 -33 -4 -46 -13 -30 -19 -73 -11 -87 15 -19
36 -12 40 75 40 78 0 85 2 85 20 0 88 -117 134 -181 71z m101 -11 c11 -6 24
-19 30 -30 10 -19 7 -20 -55 -20 -69 0 -78 7 -45 40 22 22 42 25 70 10z"/>
<path d="M4920 180 c0 -103 1 -110 20 -110 18 0 20 7 20 74 0 79 13 106 51
106 12 0 19 7 19 20 0 25 -26 26 -52 3 -17 -15 -18 -15 -18 0 0 10 -8 17 -20
17 -19 0 -20 -7 -20 -110z"/>
<path d="M5089 261 c-25 -25 -29 -37 -29 -81 0 -44 4 -56 29 -81 57 -57 155
-32 181 46 25 77 -24 145 -107 145 -36 0 -50 -6 -74 -29z m104 -12 c30 -16 37
-28 37 -71 0 -28 -6 -42 -26 -57 -33 -26 -45 -26 -78 0 -20 16 -26 29 -26 59
0 30 6 43 26 59 31 24 37 25 67 10z"/>
<path d="M5300 288 c0 -2 15 -50 34 -108 30 -95 36 -105 57 -105 21 0 26 8 43
73 10 39 22 72 26 72 4 0 15 -34 25 -75 17 -66 22 -75 42 -75 20 0 26 12 54
103 17 56 34 106 36 110 3 5 -5 7 -18 5 -19 -2 -26 -14 -40 -70 -28 -111 -29
-112 -53 -18 -18 71 -26 86 -43 88 -18 3 -24 -5 -37 -48 -9 -28 -18 -67 -22
-86 -3 -19 -9 -32 -13 -29 -3 4 -15 41 -27 83 -17 64 -24 78 -42 80 -12 2 -22
2 -22 0z"/>
<path d="M2343 104 c-3 -8 -1 -20 5 -26 16 -16 42 -2 42 22 0 24 -38 28 -47 4z"/>
<path d="M4402 98 c2 -15 10 -23 23 -23 30 0 27 39 -3 43 -20 3 -23 0 -20 -20z"/>
<path d="M5652 98 c2 -15 10 -23 23 -23 30 0 27 39 -3 43 -20 3 -23 0 -20 -20z"/>
</g>
</svg>
