<?xml version="1.0" standalone="no"?>
<!DOCTYPE svg PUBLIC "-//W3C//DTD SVG 20010904//EN"
 "http://www.w3.org/TR/2001/REC-SVG-20010904/DTD/svg10.dtd">
<svg version="1.0" xmlns="http://www.w3.org/2000/svg"
 width="161.000000pt" height="126.000000pt" viewBox="0 0 161.000000 126.000000"
 preserveAspectRatio="xMidYMid meet">

<g transform="translate(0.000000,126.000000) scale(0.100000,-0.100000)"
fill="#000000" stroke="none">
<path d="M130 525 l0 -525 125 0 125 0 2 218 3 217 200 0 200 0 3 -217 2 -218
125 0 125 0 0 525 0 525 -125 0 -125 0 0 -205 0 -205 -205 0 -205 0 0 205 0
205 -125 0 -125 0 0 -525z"/>
<path d="M1230 290 l0 -290 125 0 125 0 0 290 0 290 -125 0 -125 0 0 -290z"/>
</g>
</svg>
